<svg width="512" height="512" xmlns="http://www.w3.org/2000/svg">

 <g>
  <title>background</title>
  <rect fill="none" id="canvas_background" height="514" width="514" y="-1" x="-1"/>
 </g>
 <g>
  <title>Layer 1</title>
  <ellipse ry="251" rx="250" id="svg_6" cy="254.790042" cx="260.861203" stroke-width="null" fill="#9932cc"/>
  <path stroke="#9932cc" fill="#f5f2f7" id="svg_1" d="m291.490077,54.201368l0,15.378705c0,9.97368 6.779493,18.609719 16.467809,21.293307c72.178651,19.988901 125.06261,85.609878 125.06261,163.599178c0,93.873889 -76.626617,169.859037 -171.326296,169.859037c-94.684781,0 -171.326296,-75.970378 -171.326296,-169.859037c0,-77.978222 52.874647,-143.608431 125.060747,-163.599178c9.690178,-2.683588 16.469671,-11.321474 16.469671,-21.296077l0,-15.36855c0,-14.501715 -13.812252,-25.066209 -27.976467,-21.448396c-99.956789,25.526859 -173.709967,115.740471 -173.142914,222.941833c0.670407,126.519135 103.798595,227.976676 231.412477,227.709887c127.303818,-0.265866 230.420833,-102.664095 230.420833,-228.939518c0,-106.74625 -73.68893,-196.426283 -173.385005,-221.773129c-14.070172,-3.577194 -27.737169,7.100846 -27.737169,21.501939z"/>
 </g>
</svg>